<?xml version="1.0" encoding="utf-8"?>
<svg version="1.1" id="Capa_1" xmlns="http://www.w3.org/2000/svg" xmlns:xlink="http://www.w3.org/1999/xlink" x="0px" y="0px"
	 viewBox="0 0 612 184.1" style="enable-background:new 0 0 612 184.1;" xml:space="preserve">
<style type="text/css">
	.st0{fill:#E0D3C3;}
	.st1{fill:#F9AA5F;}
</style>
<g>
	<g>
		<rect x="120.5" y="20.4" class="st0" width="4.8" height="66.2"/>
		<rect x="374.7" y="20.4" class="st0" width="4.8" height="66.2"/>
		<path class="st0" d="M306,81.5c-1.6,0-2.8,1.3-2.8,2.8c0,1.6,1.3,2.8,2.8,2.8c1.6,0,2.8-1.3,2.8-2.8
			C308.8,82.7,307.5,81.5,306,81.5"/>
		<path class="st0" d="M326.6,58c-0.6-0.8-1.3-1.4-2-1.9c2.9-0.3,5.5-1,7.8-2c2.3-1,4.3-2.3,5.9-3.9c1.6-1.6,2.9-3.4,3.8-5.5
			c0.9-2.1,1.3-4.4,1.3-6.9c0-5.7-1.9-10-5.7-13c-3.8-2.9-9.5-4.4-17.1-4.4h-16.9v14.4c0,0.1,0,0.2,0,0.3c0,1.3,1.1,2.4,2.4,2.4
			c1.3,0,2.4-1.1,2.4-2.4c0,0,0-0.1,0-0.2V24.2h12.1c5.9,0,10.4,1.1,13.4,3.4s4.6,5.8,4.6,10.5c0,2.3-0.4,4.4-1.3,6.2
			c-0.8,1.8-2.1,3.4-3.7,4.7c-1.6,1.3-3.6,2.3-5.9,3c-2.3,0.7-4.9,1.1-7.9,1.1h-0.7v3.6c0.1,0,0.4,0.2,0.7,0.3
			c0.3,0.1,0.6,0.3,0.9,0.6c0.3,0.2,0.5,0.5,0.8,0.9l21.2,26.8c0.3,0.5,0.6,0.8,1,1c0.4,0.2,0.8,0.3,1.3,0.3h4.1L326.6,58z"/>
		<path class="st0" d="M252.4,20.4h-4.7l-27.1,66.2h3.6c0.4,0,0.8-0.1,1.1-0.4c0.3-0.2,0.5-0.5,0.7-0.9l7.8-19.2l1.4-3.6l13.5-33.4
			c0.2-0.6,0.5-1.2,0.7-1.8s0.4-1.4,0.6-2.1c0.4,1.5,0.9,2.8,1.4,3.9l13.5,33.4l1.4,3.6l2.7,6.7h-5.7v0c0,0,0,0,0,0
			c-1.2,0-2.2,1-2.2,2.2c0,1.2,0.9,2.1,2.1,2.2v0h0c0,0,0,0,0,0c0,0,0,0,0,0h7.5l3.3,8.2c0.2,0.4,0.4,0.7,0.7,0.9
			c0.3,0.2,0.6,0.4,1.1,0.4h3.7L252.4,20.4z"/>
		<path class="st0" d="M529.8,20.4h-4.7L498,86.6h3.6c0.4,0,0.8-0.1,1.1-0.4c0.3-0.2,0.5-0.5,0.7-0.9l7.8-19.2l1.4-3.6l13.5-33.4
			c0.2-0.6,0.5-1.2,0.7-1.8c0.2-0.7,0.4-1.4,0.6-2.1c0.4,1.5,0.9,2.8,1.4,3.9l13.5,33.4l1.4,3.6l2.7,6.7h-5.7v0c0,0,0,0,0,0
			c-1.2,0-2.2,1-2.2,2.2c0,1.2,0.9,2.1,2.1,2.2v0h0c0,0,0,0,0,0c0,0,0,0,0,0h7.5l3.3,8.2c0.2,0.4,0.4,0.7,0.7,0.9
			c0.3,0.2,0.6,0.4,1.1,0.4h3.7L529.8,20.4z"/>
		<path class="st0" d="M194.5,57.9c-2.8-2.7-6.8-4.4-12-5.2c2.2-0.5,4.1-1.3,5.7-2.3c1.7-1,3.1-2.2,4.2-3.6c1.1-1.4,2-2.9,2.6-4.5
			c0.6-1.6,0.9-3.3,0.9-5c0-2.6-0.4-5-1.3-7.1c-0.9-2.1-2.2-3.9-4-5.3c-1.8-1.4-4.1-2.5-6.9-3.3c-2.8-0.7-6-1.1-9.8-1.1h-19v14.2
			c0,0,0,0,0,0.1c0,0,0,0,0,0.1v0h0c0,1.3,1.1,2.4,2.4,2.4c1.3,0,2.4-1.1,2.4-2.4c0-0.1,0-0.1,0-0.2V24.2h14.2
			c5.9,0,10.2,1.1,13.1,3.4c2.8,2.3,4.2,5.7,4.2,10.1c0,1.7-0.3,3.4-1,5c-0.7,1.6-1.7,3.1-3.1,4.3c-1.4,1.3-3.2,2.3-5.3,3.1
			s-4.8,1.2-7.8,1.2h0.2v3.5h2.1c2.8,0,5.3,0.3,7.4,0.9c2.2,0.6,4,1.5,5.5,2.7c1.5,1.2,2.6,2.6,3.4,4.3c0.8,1.7,1.2,3.5,1.2,5.6
			c0,4.6-1.5,8.1-4.5,10.6c-3,2.5-7.4,3.8-13.2,3.8l-21.4,0v3.9h21.5c3.5,0,6.7-0.4,9.4-1.2c2.8-0.8,5.1-2,7-3.6
			c1.9-1.6,3.3-3.5,4.3-5.7c1-2.2,1.5-4.8,1.5-7.6C198.7,64.1,197.3,60.6,194.5,57.9"/>
		<path class="st0" d="M57.9,75.9c-1.6,0-2.8,1.3-2.8,2.8c0,1.6,1.3,2.8,2.8,2.8c1.6,0,2.8-1.3,2.8-2.8
			C60.8,77.1,59.5,75.9,57.9,75.9"/>
		<path class="st0" d="M91.6,60.5c-1-1.8-2.2-3.4-3.8-4.6c-1.6-1.2-3.3-2.3-5.3-3.1c-2-0.8-4-1.6-6.1-2.3c-2.1-0.7-4.1-1.4-6.1-2.1
			c-2-0.7-3.7-1.6-5.3-2.6c-1.6-1-2.8-2.3-3.8-3.7c-1-1.5-1.4-3.3-1.4-5.6c0-1.7,0.3-3.3,1-4.9c0.6-1.6,1.6-2.9,2.8-4.1
			c1.2-1.2,2.8-2.1,4.6-2.8c1.8-0.7,3.9-1,6.3-1c2.4,0,4.4,0.3,6.1,0.9c1.6,0.6,3,1.2,4.1,1.9c1.1,0.7,2,1.3,2.6,1.9
			c0.6,0.6,1.2,0.9,1.6,0.9c0.5,0,0.9-0.3,1.2-0.8l1.1-2.2c-2.2-2.2-4.7-3.9-7.5-5c-2.7-1.1-5.8-1.6-9.2-1.6c-3.1,0-5.8,0.5-8.2,1.4
			c-2.4,1-4.4,2.2-6,3.8c-1.6,1.6-2.9,3.4-3.7,5.4c-0.8,2.1-1.3,4.2-1.3,6.4c0,2.8,0.5,5.2,1.4,7.1c0.9,1.9,2.2,3.5,3.8,4.7
			c1.6,1.3,3.3,2.3,5.3,3.1c2,0.8,4,1.5,6.1,2.2c2.1,0.7,4.1,1.3,6.1,2c2,0.7,3.7,1.5,5.3,2.5s2.8,2.3,3.8,3.8
			c1,1.5,1.4,3.4,1.4,5.8c0,2.2-0.4,4.2-1.1,6.1c-0.7,1.9-1.8,3.5-3.2,4.9c-1.4,1.4-3.2,2.5-5.2,3.2c-0.3,0.1-0.7,0.2-1,0.3v4.2
			c1-0.2,2-0.5,2.9-0.9c2.6-1,4.8-2.5,6.6-4.3c1.8-1.8,3.2-3.9,4.1-6.4c0.9-2.4,1.4-5.1,1.4-7.8C93,64.6,92.5,62.3,91.6,60.5"/>
		<path class="st1" d="M448.6,20c-1.6,0-2.8,1.3-2.8,2.8c0,1.6,1.3,2.8,2.8,2.8c1.6,0,2.8-1.3,2.8-2.8C451.4,21.2,450.2,20,448.6,20
			"/>
		<path class="st1" d="M458.9,20.4c-0.1,0-0.2,0-0.2,0c0,0-0.1,0-0.1,0h0v0c-1.1,0.1-1.9,0.9-1.9,2c0,1.1,0.8,2,1.9,2v0h0.1
			c0,0,0,0,0.1,0c0,0,0.1,0,0.1,0h4.6v62.1h4.8V24.5h23.4v-4.1H458.9z"/>
		<path class="st1" d="M437.9,20.4L437.9,20.4L437.9,20.4c-0.1,0-0.1,0-0.1,0c-0.1,0-0.2,0-0.3,0H404v4.1h23.4v62.1h4.8V24.5h5.4
			c0,0,0.1,0,0.1,0c0,0,0,0,0.1,0h0.1v0c1.1-0.1,1.9-0.9,1.9-2C439.8,21.4,439,20.5,437.9,20.4"/>
	</g>
	<g>
		<path class="st0" d="M114.6,133.2c-1.5,0-2.8-0.3-3.9-0.8c-1.1-0.5-2-1.2-2.7-2l1.3-1.6c0.3,0.3,0.6,0.6,1,0.9
			c0.4,0.3,0.8,0.6,1.3,0.8c0.5,0.2,1,0.4,1.5,0.5c0.5,0.1,1.1,0.2,1.7,0.2c0.8,0,1.4-0.1,1.9-0.3c0.5-0.2,0.9-0.4,1.2-0.7
			s0.5-0.6,0.7-1c0.1-0.4,0.2-0.7,0.2-1c0-0.6-0.1-1-0.4-1.4c-0.3-0.4-0.7-0.7-1.2-0.9c-0.5-0.3-1-0.5-1.6-0.6
			c-0.6-0.2-1.2-0.3-1.9-0.5s-1.3-0.4-1.9-0.6c-0.6-0.2-1.2-0.5-1.6-0.9c-0.5-0.4-0.9-0.8-1.2-1.3c-0.3-0.5-0.4-1.2-0.4-2
			c0-0.7,0.2-1.4,0.5-2c0.3-0.6,0.7-1.1,1.2-1.5s1.2-0.8,1.9-1s1.5-0.4,2.4-0.4c1.3,0,2.5,0.2,3.5,0.6c1,0.4,1.9,1,2.6,1.8l-1.3,1.6
			c-0.7-0.7-1.4-1.3-2.3-1.6c-0.9-0.3-1.8-0.5-2.7-0.5c-1,0-1.9,0.3-2.6,0.8c-0.7,0.5-1,1.2-1,2c0,0.5,0.1,0.9,0.4,1.2
			c0.3,0.3,0.7,0.6,1.2,0.8c0.5,0.2,1,0.4,1.6,0.6s1.2,0.3,1.9,0.5c0.7,0.2,1.3,0.4,1.9,0.6c0.6,0.2,1.2,0.6,1.6,0.9
			c0.5,0.4,0.9,0.8,1.2,1.4c0.3,0.6,0.4,1.2,0.4,2.1c0,0.6-0.1,1.2-0.3,1.9c-0.2,0.6-0.6,1.2-1.1,1.6c-0.5,0.5-1.2,0.9-2,1.2
			C116.8,133,115.8,133.2,114.6,133.2z"/>
		<path class="st0" d="M133.6,132.9v-17.3H145v1.9h-9.2v5.6h9v1.9h-9v6h9.2v1.9H133.6z"/>
		<path class="st0" d="M162.2,132.9v-15.4h-5.5v-1.9h13.2v1.9h-5.5v15.4H162.2z"/>
		<path class="st0" d="M186.7,132.9v-15.4h-5.5v-1.9h13.2v1.9h-5.5v15.4H186.7z"/>
		<path class="st0" d="M206.4,132.9v-17.3h2.2v17.3H206.4z"/>
		<path class="st0" d="M234.4,132.9L224.3,119v13.8h-2.2v-17.3h2.2l10,13.5v-13.5h2.2v17.3H234.4z"/>
		<path class="st0" d="M258.1,133.2c-1.2,0-2.4-0.2-3.5-0.6c-1.1-0.4-2-1-2.8-1.8c-0.8-0.8-1.4-1.7-1.9-2.8
			c-0.5-1.1-0.7-2.3-0.7-3.7c0-1.4,0.2-2.6,0.7-3.7c0.5-1.1,1.1-2,1.9-2.8s1.8-1.4,2.8-1.8c1.1-0.4,2.2-0.7,3.5-0.7
			c1.5,0,2.9,0.3,3.9,0.9c1.1,0.6,2,1.4,2.8,2.3l-1.7,1.1c-0.6-0.7-1.3-1.3-2.1-1.7c-0.9-0.4-1.8-0.7-2.9-0.7c-1,0-1.8,0.2-2.7,0.5
			s-1.5,0.8-2.1,1.5c-0.6,0.6-1.1,1.4-1.4,2.2c-0.3,0.9-0.5,1.8-0.5,2.8c0,1,0.2,2,0.5,2.8c0.3,0.9,0.8,1.6,1.4,2.2
			c0.6,0.6,1.3,1.1,2.1,1.5c0.8,0.4,1.7,0.5,2.7,0.5c0.5,0,1-0.1,1.5-0.2c0.5-0.1,0.9-0.3,1.3-0.4c0.4-0.2,0.8-0.4,1.1-0.6
			c0.3-0.2,0.6-0.4,0.8-0.7v-3.5h-6V124h8.1v6.3c-0.8,0.9-1.8,1.6-3,2.2C260.8,132.9,259.5,133.2,258.1,133.2z"/>
		<path class="st0" d="M298.9,132.9v-7.3l-6.8-10h2.5l5.4,8.1l5.4-8.1h2.5l-6.8,10v7.3H298.9z"/>
		<path class="st0" d="M326.1,133.2c-1.3,0-2.5-0.2-3.5-0.7c-1.1-0.5-2-1.1-2.7-1.9s-1.3-1.8-1.8-2.8c-0.4-1.1-0.6-2.3-0.6-3.6
			c0-1.3,0.2-2.5,0.6-3.6s1-2,1.8-2.8c0.8-0.8,1.7-1.4,2.7-1.9c1.1-0.5,2.2-0.7,3.5-0.7c1.3,0,2.5,0.2,3.5,0.7
			c1.1,0.5,2,1.1,2.7,1.9c0.8,0.8,1.3,1.8,1.8,2.8s0.6,2.3,0.6,3.6c0,1.3-0.2,2.5-0.6,3.6c-0.4,1.1-1,2-1.8,2.8s-1.7,1.4-2.7,1.9
			C328.5,133,327.4,133.2,326.1,133.2z M326.1,131.3c1,0,1.8-0.2,2.6-0.5c0.8-0.4,1.4-0.8,2-1.5s1-1.4,1.3-2.2
			c0.3-0.9,0.5-1.8,0.5-2.8c0-1-0.2-1.9-0.5-2.8c-0.3-0.9-0.7-1.6-1.3-2.2s-1.2-1.1-2-1.5c-0.8-0.4-1.7-0.5-2.6-0.5
			s-1.9,0.2-2.6,0.5c-0.8,0.4-1.5,0.8-2,1.5c-0.6,0.6-1,1.4-1.3,2.2s-0.4,1.8-0.4,2.8c0,1,0.1,1.9,0.4,2.8c0.3,0.9,0.7,1.6,1.3,2.2
			c0.6,0.6,1.2,1.1,2,1.5C324.2,131.1,325.1,131.3,326.1,131.3z"/>
		<path class="st0" d="M354.3,133.2c-1.2,0-2.2-0.2-3.1-0.5s-1.6-0.8-2.2-1.4c-0.6-0.6-1-1.3-1.3-2.2c-0.3-0.9-0.4-1.8-0.4-2.9
			v-10.6h2.2v10.6c0,1.6,0.4,2.9,1.2,3.8c0.8,0.9,2.1,1.4,3.7,1.4c1.6,0,2.8-0.5,3.7-1.4c0.8-0.9,1.2-2.2,1.2-3.8v-10.6h2.2v10.6
			c0,1.1-0.1,2-0.4,2.9c-0.3,0.9-0.7,1.6-1.3,2.2c-0.6,0.6-1.3,1.1-2.2,1.4C356.6,133,355.5,133.2,354.3,133.2z"/>
		<path class="st0" d="M403.3,132.9l-1.5-3.8h-8.6l-1.5,3.8h-2.5l7-17.3h2.7l7,17.3H403.3z M397.4,117.8l-3.7,9.3h7.4L397.4,117.8z"
			/>
		<path class="st0" d="M417.5,132.9v-17.3h7c0.9,0,1.6,0.1,2.3,0.4c0.7,0.3,1.2,0.7,1.7,1.1s0.8,1,1.1,1.7c0.2,0.6,0.4,1.3,0.4,2
			c0,0.7-0.1,1.4-0.4,2c-0.2,0.6-0.6,1.2-1.1,1.7s-1,0.9-1.7,1.1s-1.4,0.4-2.3,0.4h-4.8v6.9H417.5z M424.2,124.1
			c1,0,1.9-0.3,2.5-0.9s0.9-1.4,0.9-2.4c0-1-0.3-1.8-0.9-2.4s-1.5-0.9-2.5-0.9h-4.6v6.6H424.2z"/>
		<path class="st0" d="M453,132.9l-1.5-3.8h-8.6l-1.5,3.8h-2.5l7-17.3h2.7l7,17.3H453z M447.2,117.8l-3.7,9.3h7.4L447.2,117.8z"/>
		<path class="st0" d="M477.3,132.9l-4.4-6.9h-3.5v6.9h-2.2v-17.3h7c0.8,0,1.5,0.1,2.2,0.4c0.7,0.2,1.2,0.6,1.7,1.1
			c0.5,0.5,0.9,1,1.1,1.7c0.3,0.6,0.4,1.4,0.4,2.2c0,0.8-0.1,1.5-0.4,2.1c-0.2,0.6-0.6,1.1-1,1.5s-0.9,0.7-1.4,1
			c-0.5,0.2-1.1,0.4-1.7,0.4l4.7,7.1H477.3z M473.9,124.1c1,0,1.9-0.3,2.5-0.9c0.6-0.6,0.9-1.4,0.9-2.4s-0.3-1.8-0.9-2.4
			s-1.5-0.9-2.5-0.9h-4.6v6.6H473.9z"/>
		<path class="st0" d="M496.4,132.9v-15.4h-5.5v-1.9H504v1.9h-5.5v15.4H496.4z"/>
		<path class="st0" d="M155.5,164.1v-17.3h11.4v1.9h-9.2v5.6h9v1.9h-9v7.9H155.5z"/>
		<path class="st0" d="M189,164.1l-4.4-6.9h-3.5v6.9h-2.2v-17.3h7c0.8,0,1.5,0.1,2.2,0.4c0.7,0.2,1.2,0.6,1.7,1.1
			c0.5,0.5,0.9,1,1.1,1.7s0.4,1.4,0.4,2.2c0,0.8-0.1,1.5-0.4,2.1c-0.2,0.6-0.6,1.1-1,1.5s-0.9,0.7-1.4,1c-0.5,0.2-1.1,0.4-1.7,0.4
			l4.7,7.1H189z M185.6,155.3c1,0,1.9-0.3,2.5-0.9c0.6-0.6,0.9-1.4,0.9-2.4s-0.3-1.8-0.9-2.4c-0.6-0.6-1.5-0.9-2.5-0.9h-4.5v6.6
			H185.6z"/>
		<path class="st0" d="M211.7,164.4c-1.3,0-2.5-0.2-3.5-0.7c-1.1-0.5-2-1.1-2.7-1.9s-1.3-1.8-1.8-2.8c-0.4-1.1-0.6-2.3-0.6-3.6
			c0-1.3,0.2-2.5,0.6-3.6s1-2,1.8-2.8c0.8-0.8,1.7-1.4,2.7-1.9c1.1-0.5,2.2-0.7,3.5-0.7c1.3,0,2.5,0.2,3.5,0.7
			c1.1,0.5,2,1.1,2.7,1.9c0.8,0.8,1.3,1.8,1.8,2.8s0.6,2.3,0.6,3.6c0,1.3-0.2,2.5-0.6,3.6c-0.4,1.1-1,2-1.8,2.8
			c-0.8,0.8-1.7,1.4-2.7,1.9C214.2,164.2,213,164.4,211.7,164.4z M211.7,162.5c1,0,1.8-0.2,2.6-0.5c0.8-0.4,1.4-0.8,2-1.5
			c0.6-0.6,1-1.4,1.3-2.2c0.3-0.9,0.5-1.8,0.5-2.8c0-1-0.2-1.9-0.5-2.8c-0.3-0.9-0.7-1.6-1.3-2.2c-0.6-0.6-1.2-1.1-2-1.5
			c-0.8-0.4-1.7-0.5-2.6-0.5c-1,0-1.9,0.2-2.6,0.5c-0.8,0.4-1.5,0.8-2,1.5s-1,1.4-1.3,2.2c-0.3,0.9-0.4,1.8-0.4,2.8
			c0,1,0.1,1.9,0.4,2.8c0.3,0.9,0.7,1.6,1.3,2.2s1.2,1.1,2,1.5C209.9,162.3,210.8,162.5,211.7,162.5z"/>
		<path class="st0" d="M247.8,164.1v-14.3l-5.9,14.3h-0.9l-5.9-14.3v14.3H233v-17.3h3.1l5.4,13.1l5.4-13.1h3.1v17.3H247.8z"/>
		<path class="st0" d="M283.8,164.1v-15.4h-5.5v-1.9h13.2v1.9h-5.5v15.4H283.8z"/>
		<path class="st0" d="M315.7,164.1v-8h-10.1v8h-2.2v-17.3h2.2v7.5h10.1v-7.5h2.2v17.3H315.7z"/>
		<path class="st0" d="M331.4,164.1v-17.3h11.4v1.9h-9.2v5.6h9v1.9h-9v6h9.2v1.9H331.4z"/>
		<path class="st0" d="M381.7,164.1l-4.4-6.9h-3.5v6.9h-2.2v-17.3h7c0.8,0,1.5,0.1,2.2,0.4c0.7,0.2,1.2,0.6,1.7,1.1
			c0.5,0.5,0.9,1,1.1,1.7c0.3,0.6,0.4,1.4,0.4,2.2c0,0.8-0.1,1.5-0.4,2.1c-0.2,0.6-0.6,1.1-1,1.5s-0.9,0.7-1.4,1
			c-0.5,0.2-1.1,0.4-1.7,0.4l4.7,7.1H381.7z M378.4,155.3c1,0,1.9-0.3,2.5-0.9c0.6-0.6,0.9-1.4,0.9-2.4s-0.3-1.8-0.9-2.4
			s-1.5-0.9-2.5-0.9h-4.6v6.6H378.4z"/>
		<path class="st0" d="M396.8,164.1v-17.3h11.4v1.9H399v5.6h9v1.9h-9v6h9.2v1.9H396.8z"/>
		<path class="st0" d="M426.6,164.4c-1.5,0-2.8-0.3-3.9-0.8s-2-1.2-2.7-2l1.3-1.6c0.3,0.3,0.6,0.6,1,0.9c0.4,0.3,0.8,0.6,1.3,0.8
			c0.5,0.2,1,0.4,1.5,0.5c0.5,0.1,1.1,0.2,1.7,0.2c0.8,0,1.4-0.1,2-0.3c0.5-0.2,0.9-0.4,1.2-0.7c0.3-0.3,0.5-0.6,0.7-1
			c0.1-0.4,0.2-0.7,0.2-1c0-0.6-0.1-1-0.4-1.4c-0.3-0.4-0.7-0.7-1.2-0.9c-0.5-0.3-1-0.5-1.6-0.6c-0.6-0.2-1.2-0.3-1.9-0.5
			s-1.3-0.4-1.9-0.6c-0.6-0.2-1.2-0.5-1.6-0.9c-0.5-0.4-0.9-0.8-1.2-1.3c-0.3-0.5-0.4-1.2-0.4-2c0-0.7,0.2-1.4,0.5-2
			c0.3-0.6,0.7-1.1,1.2-1.5c0.5-0.4,1.2-0.8,1.9-1c0.7-0.2,1.5-0.4,2.4-0.4c1.3,0,2.5,0.2,3.5,0.6c1,0.4,1.9,1,2.6,1.8l-1.3,1.6
			c-0.7-0.7-1.4-1.3-2.3-1.6c-0.9-0.3-1.8-0.5-2.7-0.5c-1,0-1.9,0.3-2.6,0.8c-0.7,0.5-1,1.2-1,2c0,0.5,0.1,0.9,0.4,1.2
			c0.3,0.3,0.7,0.6,1.2,0.8c0.5,0.2,1,0.4,1.6,0.6s1.2,0.3,1.9,0.5c0.6,0.2,1.3,0.4,1.9,0.6c0.6,0.2,1.2,0.6,1.6,0.9
			c0.5,0.4,0.9,0.8,1.2,1.4s0.4,1.2,0.4,2.1c0,0.6-0.1,1.2-0.3,1.9c-0.2,0.6-0.6,1.2-1.1,1.6c-0.5,0.5-1.2,0.9-2,1.2
			C428.7,164.2,427.7,164.4,426.6,164.4z"/>
		<path class="st0" d="M449.8,164.1v-15.4h-5.5v-1.9h13.2v1.9H452v15.4H449.8z"/>
	</g>
</g>
</svg>
