<svg xmlns="http://www.w3.org/2000/svg" version="1.1" xmlns:xlink="http://www.w3.org/1999/xlink" xmlns:svgjs="http://svgjs.com/svgjs" width="28.4" height="28.4"><svg version="1.1" id="SvgjsSvg1004" xmlns="http://www.w3.org/2000/svg" xmlns:xlink="http://www.w3.org/1999/xlink" x="0px" y="0px" viewBox="0 0 28.4 28.4" style="enable-background:new 0 0 28.4 28.4;" xml:space="preserve">
<style type="text/css">
	.st0{fill:#F7AA5F;}
</style>
<g id="SvgjsG1003">
	<path id="SvgjsPath1002" class="st0" d="M14.4,3.4c-0.5,0-0.9,0.4-0.9,0.9c0,0.5,0.4,0.9,0.9,0.9c0.5,0,0.9-0.4,0.9-0.9
		C15.3,3.8,14.9,3.4,14.4,3.4"></path>
	<path id="SvgjsPath1001" class="st0" d="M17.7,3.5C17.7,3.5,17.7,3.5,17.7,3.5L17.7,3.5L17.7,3.5L17.7,3.5c-0.5,0-0.7,0.3-0.7,0.6
		c0,0.4,0.3,0.6,0.6,0.6l0,0h0c0,0,0,0,0,0h0h1.5v20.1h1.6v-20h7.6V3.5H17.7z"></path>
	<path id="SvgjsPath1000" class="st0" d="M11,3.5L11,3.5L11,3.5C10.9,3.5,10.9,3.5,11,3.5c-0.1,0-0.1,0-0.1,0H0v1.3h7.6v20.1h1.6V4.9h1.7
		h0c0,0,0,0,0,0h0l0,0c0.4,0,0.6-0.3,0.6-0.6S11.3,3.6,11,3.5"></path>
</g>
</svg><style>@media (prefers-color-scheme: light) { :root { filter: none; } }
</style></svg>