<svg width="612" height="103" viewBox="0 0 612 103" fill="none" xmlns="http://www.w3.org/2000/svg">
<path d="M125.3 18.3047H120.5V84.5047H125.3V18.3047Z" fill="#E0D3C3"/>
<path d="M379.499 18.3047H374.699V84.5047H379.499V18.3047Z" fill="#E0D3C3"/>
<path d="M305.999 79.3984C304.399 79.3984 303.199 80.6984 303.199 82.1984C303.199 83.7984 304.499 84.9984 305.999 84.9984C307.599 84.9984 308.799 83.6984 308.799 82.1984C308.799 80.5984 307.499 79.3984 305.999 79.3984Z" fill="#E0D3C3"/>
<path d="M326.599 55.9047C325.999 55.1047 325.299 54.5047 324.599 54.0047C327.499 53.7047 330.099 53.0047 332.399 52.0047C334.699 51.0047 336.699 49.7047 338.299 48.1047C339.899 46.5047 341.199 44.7047 342.099 42.6047C342.999 40.5047 343.399 38.2047 343.399 35.7047C343.399 30.0047 341.499 25.7047 337.699 22.7047C333.899 19.8047 328.199 18.3047 320.599 18.3047H303.699V32.7047C303.699 32.8047 303.699 32.9047 303.699 33.0047C303.699 34.3047 304.799 35.4047 306.099 35.4047C307.399 35.4047 308.499 34.3047 308.499 33.0047C308.499 33.0047 308.499 32.9047 308.499 32.8047V22.1047H320.599C326.499 22.1047 330.999 23.2047 333.999 25.5047C336.999 27.8047 338.599 31.3047 338.599 36.0047C338.599 38.3047 338.199 40.4047 337.299 42.2047C336.499 44.0047 335.199 45.6047 333.599 46.9047C331.999 48.2047 329.999 49.2047 327.699 49.9047C325.399 50.6047 322.799 51.0047 319.799 51.0047H319.099V54.6047C319.199 54.6047 319.499 54.8047 319.799 54.9047C320.099 55.0047 320.399 55.2047 320.699 55.5047C320.999 55.7047 321.199 56.0047 321.499 56.4047L342.699 83.2047C342.999 83.7047 343.299 84.0047 343.699 84.2047C344.099 84.4047 344.499 84.5047 344.999 84.5047H349.099L326.599 55.9047Z" fill="#E0D3C3"/>
<path d="M252.4 18.3047H247.7L220.6 84.5047H224.2C224.6 84.5047 225 84.4047 225.3 84.1047C225.6 83.9047 225.8 83.6047 226 83.2047L233.8 64.0047L235.2 60.4047L248.7 27.0047C248.9 26.4047 249.2 25.8047 249.4 25.2047C249.6 24.6047 249.8 23.8047 250 23.1047C250.4 24.6047 250.9 25.9047 251.4 27.0047L264.9 60.4047L266.3 64.0047L269 70.7047H263.3C262.1 70.7047 261.1 71.7047 261.1 72.9047C261.1 74.1047 262 75.0047 263.2 75.1047H270.7L274 83.3047C274.2 83.7047 274.4 84.0047 274.7 84.2047C275 84.4047 275.3 84.6047 275.8 84.6047H279.5L252.4 18.3047Z" fill="#E0D3C3"/>
<path d="M529.8 18.3047H525.1L498 84.5047H501.6C502 84.5047 502.4 84.4047 502.7 84.1047C503 83.9047 503.2 83.6047 503.4 83.2047L511.2 64.0047L512.6 60.4047L526.1 27.0047C526.3 26.4047 526.6 25.8047 526.8 25.2047C527 24.5047 527.2 23.8047 527.4 23.1047C527.8 24.6047 528.3 25.9047 528.8 27.0047L542.3 60.4047L543.7 64.0047L546.4 70.7047H540.7C539.5 70.7047 538.5 71.7047 538.5 72.9047C538.5 74.1047 539.4 75.0047 540.6 75.1047H548.1L551.4 83.3047C551.6 83.7047 551.8 84.0047 552.1 84.2047C552.4 84.4047 552.7 84.6047 553.2 84.6047H556.9L529.8 18.3047Z" fill="#E0D3C3"/>
<path d="M194.499 55.7984C191.699 53.0984 187.699 51.3984 182.499 50.5984C184.699 50.0984 186.599 49.2984 188.199 48.2984C189.899 47.2984 191.299 46.0984 192.399 44.6984C193.499 43.2984 194.399 41.7984 194.999 40.1984C195.599 38.5984 195.899 36.8984 195.899 35.1984C195.899 32.5984 195.499 30.1984 194.599 28.0984C193.699 25.9984 192.399 24.1984 190.599 22.7984C188.799 21.3984 186.499 20.2984 183.699 19.4984C180.899 18.7984 177.699 18.3984 173.899 18.3984H154.899V32.5984C154.899 32.5984 154.899 32.5984 154.899 32.6984C154.899 32.6984 154.899 32.6984 154.899 32.7984C154.899 34.0984 155.999 35.1984 157.299 35.1984C158.599 35.1984 159.699 34.0984 159.699 32.7984C159.699 32.6984 159.699 32.6984 159.699 32.5984V22.0984H173.899C179.799 22.0984 184.099 23.1984 186.999 25.4984C189.799 27.7984 191.199 31.1984 191.199 35.5984C191.199 37.2984 190.899 38.9984 190.199 40.5984C189.499 42.1984 188.499 43.6984 187.099 44.8984C185.699 46.1984 183.899 47.1984 181.799 47.9984C179.699 48.7984 176.999 49.1984 173.999 49.1984H174.199V52.6984H176.299C179.099 52.6984 181.599 52.9984 183.699 53.5984C185.899 54.1984 187.699 55.0984 189.199 56.2984C190.699 57.4984 191.799 58.8984 192.599 60.5984C193.399 62.2984 193.799 64.0984 193.799 66.1984C193.799 70.7984 192.299 74.2984 189.299 76.7984C186.299 79.2984 181.899 80.5984 176.099 80.5984H154.699V84.4984H176.199C179.699 84.4984 182.899 84.0984 185.599 83.2984C188.399 82.4984 190.699 81.2984 192.599 79.6984C194.499 78.0984 195.899 76.1984 196.899 73.9984C197.899 71.7984 198.399 69.1984 198.399 66.3984C198.699 61.9984 197.299 58.4984 194.499 55.7984Z" fill="#E0D3C3"/>
<path d="M57.8996 73.8047C56.2996 73.8047 55.0996 75.1047 55.0996 76.6047C55.0996 78.2047 56.3996 79.4047 57.8996 79.4047C59.4996 79.4047 60.6996 78.1047 60.6996 76.6047C60.7996 75.0047 59.4996 73.8047 57.8996 73.8047Z" fill="#E0D3C3"/>
<path d="M91.5988 58.4016C90.5988 56.6016 89.3988 55.0016 87.7988 53.8016C86.1988 52.6016 84.4988 51.5016 82.4988 50.7016C80.4988 49.9016 78.4988 49.1016 76.3988 48.4016C74.2988 47.7016 72.2988 47.0016 70.2988 46.3016C68.2988 45.6016 66.5988 44.7016 64.9988 43.7016C63.3988 42.7016 62.1988 41.4016 61.1988 40.0016C60.1988 38.5016 59.7988 36.7016 59.7988 34.4016C59.7988 32.7016 60.0988 31.1016 60.7988 29.5016C61.3988 27.9016 62.3988 26.6016 63.5988 25.4016C64.7988 24.2016 66.3988 23.3016 68.1988 22.6016C69.9988 21.9016 72.0988 21.6016 74.4988 21.6016C76.8988 21.6016 78.8988 21.9016 80.5988 22.5016C82.1988 23.1016 83.5988 23.7016 84.6988 24.4016C85.7988 25.1016 86.6988 25.7016 87.2988 26.3016C87.8988 26.9016 88.4988 27.2016 88.8988 27.2016C89.3988 27.2016 89.7988 26.9016 90.0988 26.4016L91.1988 24.2016C88.9988 22.0016 86.4988 20.3016 83.6988 19.2016C80.9988 18.1016 77.8988 17.6016 74.4988 17.6016C71.3988 17.6016 68.6988 18.1016 66.2988 19.0016C63.8988 20.0016 61.8988 21.2016 60.2988 22.8016C58.6988 24.4016 57.3988 26.2016 56.5988 28.2016C55.7988 30.3016 55.2988 32.4016 55.2988 34.6016C55.2988 37.4016 55.7988 39.8016 56.6988 41.7016C57.5988 43.6016 58.8988 45.2016 60.4988 46.4016C62.0988 47.7016 63.7988 48.7016 65.7988 49.5016C67.7988 50.3016 69.7988 51.0016 71.8988 51.7016C73.9988 52.4016 75.9988 53.0016 77.9988 53.7016C79.9988 54.4016 81.6988 55.2016 83.2988 56.2016C84.8988 57.2016 86.0988 58.5016 87.0988 60.0016C88.0988 61.5016 88.4988 63.4016 88.4988 65.8016C88.4988 68.0016 88.0988 70.0016 87.3988 71.9016C86.6988 73.8016 85.5988 75.4016 84.1988 76.8016C82.7988 78.2016 80.9988 79.3016 78.9988 80.0016C78.6988 80.1016 78.2988 80.2016 77.9988 80.3016V84.5016C78.9988 84.3016 79.9988 84.0016 80.8988 83.6016C83.4988 82.6016 85.6988 81.1016 87.4988 79.3016C89.2988 77.5016 90.6988 75.4016 91.5988 72.9016C92.4988 70.5016 92.9988 67.8016 92.9988 65.1016C92.9988 62.5016 92.4988 60.2016 91.5988 58.4016Z" fill="#E0D3C3"/>
<path d="M448.601 17.8984C447.001 17.8984 445.801 19.1984 445.801 20.6984C445.801 22.2984 447.101 23.4984 448.601 23.4984C450.201 23.4984 451.401 22.1984 451.401 20.6984C451.401 19.0984 450.201 17.8984 448.601 17.8984Z" fill="#F9AA5F"/>
<path d="M458.899 18.3047C458.799 18.3047 458.699 18.3047 458.699 18.3047H458.599C457.499 18.4047 456.699 19.2047 456.699 20.3047C456.699 21.4047 457.499 22.3047 458.599 22.3047H458.699C458.699 22.3047 458.699 22.3047 458.799 22.3047H458.899H463.499V84.4047H468.299V22.4047H491.699V18.3047H458.899Z" fill="#F9AA5F"/>
<path d="M437.9 18.3047C437.8 18.3047 437.8 18.3047 437.8 18.3047C437.7 18.3047 437.6 18.3047 437.5 18.3047H404V22.4047H427.4V84.5047H432.2V22.4047H437.6H437.7C437.7 22.4047 437.7 22.4047 437.8 22.4047H437.9C439 22.3047 439.8 21.5047 439.8 20.4047C439.8 19.3047 439 18.4047 437.9 18.3047Z" fill="#F9AA5F"/>
</svg>
