<svg width="33" height="27" viewBox="0 0 33 27" fill="none" xmlns="http://www.w3.org/2000/svg">
<path d="M31.125 25.4999C31.125 22.6697 28.4119 20.2621 24.625 19.3698M21.375 25.5C21.375 21.9101 17.0098 19 11.625 19C6.24022 19 1.875 21.9101 1.875 25.5M21.375 14.125C24.9649 14.125 27.875 11.2149 27.875 7.625C27.875 4.03515 24.9649 1.125 21.375 1.125M11.625 14.125C8.03515 14.125 5.125 11.2149 5.125 7.625C5.125 4.03515 8.03515 1.125 11.625 1.125C15.2149 1.125 18.125 4.03515 18.125 7.625C18.125 11.2149 15.2149 14.125 11.625 14.125Z" stroke="#F89C53" stroke-width="2" stroke-linecap="round" stroke-linejoin="round"/>
</svg>
