<svg width="30" height="30" viewBox="0 0 30 30" fill="none" xmlns="http://www.w3.org/2000/svg">
<path d="M19.4135 7.34879C19.3804 5.44623 18.2192 3.75345 16.484 3.11973L16.4838 3.11968C16.2535 3.03579 16.0068 2.97969 15.7712 2.92613C15.6674 2.90253 15.5658 2.87943 15.4687 2.85466L15.4505 2.85H15.4317H15.43H15.4283H15.4266H15.425H15.4233H15.4216H15.4199H15.4183H15.4166H15.4149H15.4132H15.4116H15.4099H15.4082H15.4065H15.4049H15.4032H15.4015H15.3998H15.3982H15.3965H15.3948H15.3931H15.3915H15.3898H15.3881H15.3864H15.3847H15.3831H15.3814H15.3797H15.378H15.3764H15.3747H15.373H15.3713H15.3697H15.368H15.3663H15.3646H15.363H15.3613H15.3596H15.3579H15.3563H15.3546H15.3529H15.3512H15.3496H15.3479H15.3462H15.3445H15.3429H15.3412H15.3395H15.3378H15.3362H15.3345H15.3328H15.3311H15.3295H15.3278H15.3261H15.3244H15.3228H15.3211H15.3194H15.3177H15.3161H15.3144H15.3127H15.311H15.3094H15.3077H15.306H15.3043H15.3026H15.301H15.2993H15.2976H15.2959H15.2943H15.2926H15.2909H15.2892H15.2876H15.2859H15.2842H15.2825H15.2809H15.2792H15.2775H15.2758H15.2742H15.2725H15.2708H15.2691H15.2675H15.2658H15.2641H15.2624H15.2608H15.2591H15.2574H15.2557H15.2541H15.2524H15.2507H15.249H15.2474H15.2457H15.244H15.2423H15.2407H15.239H15.2373H15.2356H15.234H15.2323H15.2306H15.2289H15.2273H15.2256H15.2239H15.2222H15.2205H15.2189H15.2172H15.2155H15.2138H15.2122H15.2105H15.2088H15.2071H15.2055H15.2038H15.2021H15.2004H15.1988H15.1971H15.1954H15.1937H15.1921H15.1904H15.1887H15.187H15.1854H15.1837H15.182H15.1803H15.1787H15.177H15.1753H15.1736H15.172H15.1703H15.1686H15.1669H15.1653H15.1636H15.1619H15.1602H15.1586H15.1569H15.1552H15.1535H15.1519H15.1502H15.1485H15.1468H15.1451H15.1435H15.1418H15.1401H15.1384H15.1368H15.1351H15.1334H15.1317H15.1301H15.1284H15.1267H15.125H15.1234H15.1217H15.12H15.1183H15.1167H15.115H15.1133H15.1116H15.11H15.1083H15.1066H15.1049H15.1033H15.1016H15.0999H15.0982H15.0966H15.0949H15.0932H15.0915H15.0899H15.0882H15.0865H15.0848H15.0832H15.0815H15.0798H15.0781H15.0765H15.0748H15.0731H15.0714H15.0698H15.0681H15.0664H15.0647H15.063H15.0614H15.0597H15.058H15.0563H15.0547H15.053H15.0513H15.0496H15.048H15.0463H15.0446H15.0429H15.0413H15.0396H15.0379H15.0362H15.0346H15.0329H15.0312H15.0295H15.0279H15.0262H15.0245H15.0228H15.0212H15.0195H15.0178H15.0161H15.0145H15.0128H15.0111H15.0094H15.0078H15.0061H15.0044H15.0027H15.0011H14.9994H14.9977H14.996H14.9944H14.9927H14.991H14.9893H14.9877H14.986H14.9843H14.9826H14.9809H14.9793H14.9776H14.9759H14.9742H14.9726H14.9709H14.9692H14.9675H14.9659H14.9642H14.9625H14.9608H14.9592H14.9575H14.9558H14.9541H14.9525H14.9508H14.9491H14.9474H14.9458H14.9441H14.9424H14.9407H14.9391H14.9374H14.9357H14.934H14.9324H14.9307H14.929H14.9273H14.9257H14.924H14.9223H14.9206H14.919H14.9173H14.9156H14.9139H14.9123H14.9106H14.9089H14.9072H14.9056H14.9039H14.9022H14.9005H14.8988H14.8972H14.8955H14.8938H14.8921H14.8905H14.8888H14.8871H14.8854H14.8838H14.8821H14.8804H14.8787H14.8771H14.8754H14.8737H14.872H14.8704H14.8687H14.867H14.8653H14.8637H14.862H14.8603H14.8586H14.857H14.8553H14.8536H14.8519H14.8503H14.8486H14.8469H14.8452H14.8436H14.8419H14.8402H14.8385H14.8369H14.8352H14.8335H14.8318H14.8302H14.8285H14.8268H14.8251H14.8235H14.8218H14.8201H14.8184H14.8167H14.8151H14.8134H14.8117H14.81H14.8084H14.8067H14.805H14.8033H14.8017H14.8H14.7983H14.7966H14.795H14.7933H14.7916H14.7899H14.7883H14.7866H14.7849H14.7832H14.7816H14.7799H14.7782H14.7765H14.7749H14.7732H14.7715H14.7698H14.7682H14.7665H14.7648H14.7631H14.7615H14.7598H14.7581H14.7564H14.7548H14.7531H14.7514H14.7497H14.7481H14.7464H14.7447H14.743H14.7413H14.7397H14.738H14.7363H14.7346H14.733H14.7313H14.7296H14.7279H14.7263H14.7246H14.7229H14.7212H14.7196H14.7179H14.7162H14.7145H14.7129H14.7112H14.7095H14.7078H14.7062H14.7045H14.7028H14.7011H14.6995H14.6978H14.6961H14.6944H14.6928H14.6911H14.6894H14.6877H14.6861H14.6844H14.6827H14.681H14.6794H14.6777H14.676H14.6743H14.6727H14.671H14.6693H14.6676H14.666H14.6643H14.6626H14.6609H14.6592H14.6576H14.6559H14.6542H14.6525H14.6509H14.6492H14.6475H14.6458H14.6442H14.6425H14.6408H14.6391H14.6375H14.6358H14.6341H14.6324H14.6308H14.6291H14.6274H14.6257H14.6241H14.6224H14.6207H14.619H14.6174H14.6157H14.614H14.6123H14.6107H14.609H14.6073H14.6056H14.604H14.6023H14.6006H14.5989H14.5973H14.5956H14.5939H14.5922H14.5906H14.5889H14.5872H14.5855H14.5838H14.5822H14.5805H14.5788H14.5771H14.5755H14.5738H14.2205L19.2636 7.35141M19.4135 7.34879L19.2636 7.35141M19.4135 7.34879C19.4135 7.34877 19.4135 7.34874 19.4135 7.34872L19.2636 7.35141M19.4135 7.34879C19.4169 7.53769 19.4159 7.72785 19.415 7.92093C19.4147 7.96422 19.4145 8.00765 19.4143 8.05125M19.2636 7.35141C19.2669 7.53862 19.266 7.72584 19.265 7.91793C19.2647 7.96209 19.2645 8.00651 19.2643 8.05125H19.2647H19.2653H19.266H19.2667H19.2673H19.268H19.2687H19.2693H19.27H19.2706H19.2713H19.2719H19.2726H19.2733H19.2739H19.2746H19.2752H19.2759H19.2765H19.2772H19.2778H19.2785H19.2791H19.2798H19.2804H19.2811H19.2817H19.2824H19.283H19.2837H19.2843H19.2849H19.2856H19.2862H19.2869H19.2875H19.2881H19.2888H19.2894H19.2901H19.2907H19.2913H19.292H19.2926H19.2932H19.2939H19.2945H19.2951H19.2958H19.2964H19.297H19.2977H19.2983H19.2989H19.2996H19.3002H19.3008H19.3014H19.3021H19.3027H19.3033H19.3039H19.3046H19.3052H19.3058H19.3064H19.307H19.3077H19.3083H19.3089H19.3095H19.3101H19.3107H19.3114H19.312H19.3126H19.3132H19.3138H19.3144H19.315H19.3157H19.3163H19.3169H19.3175H19.3181H19.3187H19.3193H19.3199H19.3205H19.3211H19.3217H19.3223H19.3229H19.3236H19.3242H19.3248H19.3254H19.326H19.3266H19.3272H19.3278H19.3284H19.329H19.3296H19.3302H19.3308H19.3313H19.3319H19.3325H19.3331H19.3337H19.3343H19.3349H19.3355H19.3361H19.3367H19.3373H19.3379H19.3385H19.339H19.3396H19.3402H19.3408H19.3414H19.342H19.3426H19.3432H19.3437H19.3443H19.3449H19.3455H19.3461H19.3467H19.3472H19.3478H19.3484H19.349H19.3496H19.3501H19.3507H19.3513H19.3519H19.3524H19.353H19.3536H19.3542H19.3547H19.3553H19.3559H19.3565H19.357H19.3576H19.3582H19.3587H19.3593H19.3599H19.3605H19.361H19.3616H19.3622H19.3627H19.3633H19.3639H19.3644H19.365H19.3656H19.3661H19.3667H19.3672H19.3678H19.3684H19.3689H19.3695H19.37H19.3706H19.3712H19.3717H19.3723H19.3728H19.3734H19.374H19.3745H19.3751H19.3756H19.3762H19.3767H19.3773H19.3778H19.3784H19.379H19.3795H19.3801H19.3806H19.3812H19.3817H19.3823H19.3828H19.3834H19.3839H19.3845H19.385H19.3856H19.3861H19.3867H19.3872H19.3877H19.3883H19.3888H19.3894H19.3899H19.3905H19.391H19.3916H19.3921H19.3926H19.3932H19.3937H19.3943H19.3948H19.3953H19.3959H19.3964H19.397H19.3975H19.398H19.3986H19.3991H19.3996H19.4002H19.4007H19.4013H19.4018H19.4023H19.4029H19.4034H19.4039H19.4045H19.405H19.4055H19.4061H19.4066H19.4071H19.4076H19.4082H19.4087H19.4092H19.4098H19.4103H19.4108H19.4114H19.4119H19.4124H19.4129H19.4135H19.414H19.4143M19.4143 8.05125C19.4141 8.10103 19.414 8.15102 19.414 8.20125H19.264L22.5204 8.20266M19.4143 8.05125H19.4145H19.415H19.4156H19.4161H19.4166H19.4171H19.4177H19.4182H19.4187H19.4192H19.4197H19.4203H19.4208H19.4213H19.4218H19.4224H19.4229H19.4234H19.4239H19.4244H19.425H19.4255H19.426H19.4265H19.427H19.4275H19.4281H19.4286H19.4291H19.4296H19.4301H19.4306H19.4311H19.4317H19.4322H19.4327H19.4332H19.4337H19.4342H19.4347H19.4353H19.4358H19.4363H19.4368H19.4373H19.4378H19.4383H19.4388H19.4393H19.4399H19.4404H19.4409H19.4414H19.4419H19.4424H19.4429H19.4434H19.4439H19.4444H19.4449H19.4454H19.4459H19.4464H19.447H19.4475H19.448H19.4485H19.449H19.4495H19.45H19.4505H19.451H19.4515H19.452H19.4525H19.453H19.4535H19.454H19.4545H19.455H19.4555H19.456H19.4565H19.457H19.4575H19.458H19.4585H19.459H19.4595H19.46H19.4605H19.461H19.4615H19.462H19.4625H19.463H19.4635H19.464H19.4645H19.465H19.4655H19.466H19.4665H19.467H19.4674H19.4679H19.4684H19.4689H19.4694H19.4699H19.4704H19.4709H19.4714H19.4719H19.4724H19.4729H19.4734H19.4739H19.4744H19.4748H19.4753H19.4758H19.4763H19.4768H19.4773H19.4778H19.4783H19.4788H19.4793H19.4798H19.4802H19.4807H19.4812H19.4817H19.4822H19.4827H19.4832H19.4837H19.4842H19.4846H19.4851H19.4856H19.4861H19.4866H19.4871H19.4876H19.4881H19.4885H19.489H19.4895H19.49H19.4905H19.491H19.4915H19.4919H19.4924H19.4929H19.4934H19.4939H19.4944H19.4949H19.4953H19.4958H19.4963H19.4968H19.4973H19.4978H19.4982H19.4987H19.4992H19.4997H19.5002H19.5007H19.5011H19.5016H19.5021H19.5026H19.5031H19.5036H19.504H19.5045H19.505H19.5055H19.506H19.5064H19.5069H19.5074H19.5079H19.5084H19.5089H19.5093H19.5098H19.5103H19.5108H19.5113H19.5117H19.5122H19.5127H19.5132H19.5137H19.5141H19.5146H19.5151H19.5156H19.5161H19.5165H19.517H19.5175H19.518H19.5185H19.5189H19.5194H19.5199H19.5204H19.5208H19.5213H19.5218H19.5223H19.5228H19.5232H19.5237H19.5242H19.5247H19.5252H19.5256H19.5261H19.5266H19.5271H19.5275H19.528H19.5285H19.529H19.5295H19.5299H19.5304H19.5309H19.5314H19.5318H19.5323H19.5328H19.5333H19.5338H19.5342H19.5347H19.5352H19.5357H19.5361H19.5366H19.5371H19.5376H19.5381H19.5385H19.539H19.5395H19.54H19.5404H19.5409C19.8166 8.05125 20.0924 8.05107 20.3682 8.05089C21.0856 8.05042 21.8033 8.04995 22.5209 8.05266M22.5209 8.05266C22.5209 8.05266 22.5209 8.05266 22.5209 8.05266L22.5204 8.20266M22.5209 8.05266L22.5204 8.20266M22.5209 8.05266C22.7596 8.05347 22.969 8.12372 23.126 8.26826C23.2826 8.4125 23.372 8.61681 23.3975 8.85762L23.3976 8.85763C23.4812 9.64667 23.561 10.4364 23.6407 11.2255C23.6637 11.4532 23.6867 11.6808 23.7098 11.9084L23.5606 11.9236C23.5375 11.6957 23.5144 11.4678 23.4914 11.2399C23.4117 10.4509 23.3319 9.6619 23.2484 8.87344C23.2031 8.44688 22.9389 8.20406 22.5204 8.20266M14.7823 3H15.4317C15.537 3.02687 15.6432 3.051 15.7494 3.07512C15.9803 3.12758 16.2112 3.18003 16.4325 3.26063L14.7823 3ZM14.7823 3L14.6826 2.89676L14.6817 2.89582L14.5744 2.99945" fill="#F89C53" stroke="#F89C53" stroke-width="0.3"/>
</svg>
